<svg xmlns="http://www.w3.org/2000/svg" preserveAspectRatio="xMidYMid" width="7.28" height="16.22" viewBox="0 0 7.28 16.22"><defs><style>.cls-1{fill:#fff;fill-rule:evenodd}</style></defs><path d="M1.596 8.133c.04.051.018.413.018.48l.002 7.619h3.218c.019-2.006 0-4.064 0-6.079 0-.029-.006-1.951.003-1.992.006-.026.007-.023.013-.034.005.001 2.048.018 2.119 0l.036-.011.282-2.78H4.845c-.01-.411.002-.833.002-1.245 0-.376-.008-.841.209-1.047l2.219-.228-.004-2.79C6.851 0 6.354.023 5.925.023c-.445 0-.897-.009-1.335.021C3.755.1 3.08.356 2.592.783c-.707 1.163-.98.164-.986 4.553l-1.617.001.003 2.793 1.604.003z" class="cls-1"/></svg>