<svg xmlns="http://www.w3.org/2000/svg" preserveAspectRatio="xMidYMid" width="16.87" height="17" viewBox="0 0 16.87 17"><defs><style>.cls-1{fill:#fff;fill-rule:evenodd}</style></defs><path d="M8.17.788c.526.31.918.749 1.174 1.309.257.56.385 1.131.385 1.709 0 .679-.12 1.22-.363 1.622a4.936 4.936 0 0 1-.802 1.025c-.293.281-.559.538-.796.764-.239.23-.358.514-.358.852 0 .326.161.623.483.89.324.268.678.565 1.068.89.388.326.742.716 1.064 1.167.324.452.485 1.036.485 1.753 0 .737-.184 1.373-.55 1.905-.367.53-.829.969-1.389 1.314a6.314 6.314 0 0 1-1.869.757 8.552 8.552 0 0 1-1.996.246 7.79 7.79 0 0 1-1.553-.168 5.54 5.54 0 0 1-1.539-.55 3.62 3.62 0 0 1-1.17-.975c-.306-.399-.459-.895-.459-1.488 0-.722.206-1.324.62-1.8a4.534 4.534 0 0 1 1.531-1.144 7.547 7.547 0 0 1 1.968-.609c.704-.12 1.341-.186 1.911-.202a4.67 4.67 0 0 1-.457-.693 1.754 1.754 0 0 1-.202-.825c0-.167.024-.315.073-.446.046-.13.099-.274.158-.433a1.577 1.577 0 0 1-.37.041h-.379c-.496 0-.972-.083-1.426-.252a3.552 3.552 0 0 1-1.186-.721 3.646 3.646 0 0 1-.814-1.102 3.192 3.192 0 0 1-.306-1.418c0-.491.09-.953.272-1.388.185-.436.429-.83.739-1.188A4.473 4.473 0 0 1 4.509.182a9.56 9.56 0 0 1 1.934-.197h4.517L9.564.788H8.17zm.878 12.872c0-.355-.078-.678-.238-.973a3.245 3.245 0 0 0-.58-.781 6.094 6.094 0 0 0-.775-.64c-.285-.199-.565-.387-.836-.569a3.502 3.502 0 0 0-.322-.033 6.339 6.339 0 0 0-.327-.011c-.416 0-.866.044-1.351.135a4.886 4.886 0 0 0-1.328.445c-.403.208-.736.48-1 .819-.264.341-.394.764-.394 1.271 0 .491.127.912.383 1.257.255.351.576.633.956.855.379.219.801.379 1.258.475.457.098.887.147 1.29.147.375 0 .757-.042 1.148-.124a3.278 3.278 0 0 0 1.06-.415c.316-.189.57-.437.765-.74.193-.303.291-.678.291-1.118zM5.906 7.093c.701 0 1.192-.221 1.472-.668.279-.443.417-.976.417-1.599 0-.385-.054-.812-.159-1.286a5.442 5.442 0 0 0-.494-1.346 3.318 3.318 0 0 0-.857-1.053A1.929 1.929 0 0 0 5.047.722c-.342 0-.643.066-.901.197-.255.13-.466.308-.63.531a2.387 2.387 0 0 0-.373.77c-.085.29-.126.592-.126.902 0 .383.062.807.19 1.274.128.468.318.902.568 1.302.248.403.551.736.905 1a2 2 0 0 0 1.226.395zm10.953-4.666h-2.362V.071h-1.175v2.356H10.96v1.14h2.362V5.9h1.175V3.567h2.362v-1.14z" class="cls-1"/></svg>