<svg xmlns="http://www.w3.org/2000/svg" preserveAspectRatio="xMidYMid" width="14.84" height="14.844" viewBox="0 0 14.84 14.844"><defs><style>.cls-1{fill:#000;fill-rule:evenodd}</style></defs><path d="M10.283 6.278a4.004 4.004 0 0 1-3.999 3.999 4.004 4.004 0 0 1-3.999-3.999 4.004 4.004 0 0 1 3.999-3.999 4.004 4.004 0 0 1 3.999 3.999zm4.57 7.426c0-.303-.125-.597-.33-.802l-3.062-3.063a6.26 6.26 0 0 0 1.107-3.561A6.282 6.282 0 0 0 6.284-.007 6.282 6.282 0 0 0 0 6.278a6.282 6.282 0 0 0 9.846 5.177l3.061 3.053c.206.214.5.339.804.339a1.15 1.15 0 0 0 1.142-1.143z" class="cls-1"/></svg>