<svg xmlns="http://www.w3.org/2000/svg" preserveAspectRatio="xMidYMid" width="18.91" height="11" viewBox="0 0 18.91 11"><defs><style>.cls-1{fill:#fff;fill-rule:evenodd}</style></defs><path d="M0 .71C.103.625.232.563.387.521.531.48.661.458.774.458h.139c.104 0 .228.006.372.016.227.01.393.016.496.016.062 0 .258-.01.589-.032.165-.011.315-.013.449-.007.134.004.252.007.356.007.207.022.371.063.495.125.062.032.13.1.202.205.072.105.131.205.178.3.046.093.106.227.178.4.072.173.124.286.155.337.392.861.878 1.716 1.456 2.565l.108.172a2.9 2.9 0 0 0 .131.197l.14.181c.057.074.111.131.163.173l.162.134a.41.41 0 0 0 .178.087.58.58 0 0 0 .186 0c.289-.054.45-.666.48-1.841.011-.198.016-.383.016-.55 0-.776-.078-1.31-.232-1.605a.776.776 0 0 0-.24-.275 1.743 1.743 0 0 0-.38-.189A1.973 1.973 0 0 1 6.195.71c.145-.294.4-.489.766-.582.367-.095.865-.141 1.495-.141h.821l.402.007c.269.005.409.021.419.047l.341.087.301.141c.202.095.267.169.194.221.093.188.15.409.171.66 0 .073.004.147.015.22 0 .209-.015.483-.047.817-.041.441-.061.714-.061.819a5.49 5.49 0 0 0-.016 1.32c.042.461.197.781.465.96a.953.953 0 0 0 .255-.063.74.74 0 0 0 .24-.174c.083-.083.14-.143.171-.179.031-.038.095-.125.193-.26a4.19 4.19 0 0 1 .163-.22c.485-.65.971-1.505 1.456-2.565l.139-.353.178-.416c.119-.278.181-.381.186-.307.005.074.085.003.24-.212.165-.073.361-.111.588-.111h.14c.207 0 .444.012.713.032.33.022.573.032.727.032.093 0 .235-.006.426-.016.192-.01.359-.019.504-.023.144-.006.297-.004.457.007.16.01.291.041.395.095a.463.463 0 0 1 .217.203c.03.064.046.131.046.205 0 .304-.181.761-.542 1.369a9.127 9.127 0 0 1-.535.824c-.18.246-.415.551-.704.913-.289.361-.48.605-.573.732-.021.02-.093.115-.217.283-.124.167-.215.294-.271.377a2.004 2.004 0 0 0-.178.353.921.921 0 0 0-.078.418c0 .084.016.162.047.235.031.073.08.153.147.236.067.084.118.147.155.189.036.042.105.11.209.204.103.094.165.152.186.174.733.681 1.311 1.294 1.734 1.838.413.547.62.939.62 1.181 0 .346-.263.561-.79.644a5.298 5.298 0 0 1-.821.064c-.217 0-.439-.016-.666-.048a5.667 5.667 0 0 0-.573-.031c-.269 0-.501.025-.697.079h-.092c-.683-.116-1.4-.608-2.154-1.479a5.005 5.005 0 0 1-.263-.323 4.679 4.679 0 0 0-.341-.4 1.652 1.652 0 0 0-.356-.267.625.625 0 0 0-.418-.096c-.238.043-.395.195-.473.457a3.972 3.972 0 0 0-.139.936c-.015.361-.064.616-.147.763-.134.252-.542.377-1.223.377-.29 0-.63-.022-1.023-.064a6.136 6.136 0 0 1-2.191-.628c-.655-.336-1.175-.689-1.557-1.062-.382-.372-.8-.856-1.255-1.454C2.643 6.361 1.626 4.672.665 2.692l-.17-.355a24.958 24.958 0 0 1-.186-.4 8.566 8.566 0 0 1-.147-.371 2.554 2.554 0 0 1-.123-.439A2.313 2.313 0 0 1 0 .71z" class="cls-1"/></svg>