<svg xmlns="http://www.w3.org/2000/svg" preserveAspectRatio="xMidYMid" width="15.87" height="12" viewBox="0 0 15.87 12"><defs><style>.cls-1{fill:#fff;fill-rule:evenodd}</style></defs><path d="M7.802.014c1.736.078 3.397.15 5.058.228.395.019.795.021 1.183.093.846.158 1.451.879 1.572 1.818.183 1.419.276 2.845.25 4.278a27.412 27.412 0 0 1-.275 3.507c-.129.868-.793 1.626-1.577 1.779-.284.055-.578.057-.867.075-2.324.149-4.649.27-6.978.17-1.382-.058-2.762-.146-4.142-.228-.847-.049-1.63-.824-1.77-1.775a27.35 27.35 0 0 1-.27-4.743C.015 4.142.093 3.071.252 2.01c.14-.941.887-1.67 1.787-1.718C3.983.189 5.929.103 7.802.014zM6.123 8.377l4.298-2.434-4.298-2.432v4.866z" class="cls-1"/></svg>