<svg xmlns="http://www.w3.org/2000/svg" xmlns:xlink="http://www.w3.org/1999/xlink" preserveAspectRatio="xMidYMid" width="16" height="7.03" viewBox="0 0 16 7.03">
  <defs>
    <style>
      .cls-1 {
        fill: #fff;
        fill-rule: evenodd;
      }
    </style>
  </defs>
  <path d="M16.002,3.487 L16.002,3.487 C16.002,3.405 15.965,3.331 15.909,3.276 L12.353,0.071 C12.261,-0.002 12.140,-0.020 12.029,0.025 C11.918,0.071 11.853,0.172 11.853,0.291 L11.853,2.343 L0.296,2.343 C0.129,2.343 -0.000,2.471 -0.000,2.635 L-0.000,4.394 C-0.000,4.559 0.129,4.687 0.296,4.687 L11.853,4.687 L11.853,6.739 C11.853,6.857 11.928,6.958 12.029,7.004 C12.140,7.050 12.261,7.031 12.353,6.949 L15.909,3.707 C15.965,3.652 16.002,3.569 16.002,3.487 Z" class="cls-1"/>
</svg>
