<svg xmlns="http://www.w3.org/2000/svg" xmlns:xlink="http://www.w3.org/1999/xlink" preserveAspectRatio="xMidYMid" width="7.28" height="16.22" viewBox="0 0 7.28 16.22">
  <defs>
    <style>
      .cls-1 {
        fill: #fff;
        fill-rule: evenodd;
      }
    </style>
  </defs>
  <path d="M1.596,8.133 C1.636,8.184 1.614,8.546 1.614,8.613 L1.616,16.232 L4.834,16.232 C4.853,14.226 4.834,12.168 4.834,10.153 C4.834,10.124 4.828,8.202 4.837,8.161 C4.843,8.135 4.844,8.138 4.850,8.127 C4.855,8.128 6.898,8.145 6.969,8.127 L7.005,8.116 L7.287,5.336 L4.845,5.336 C4.835,4.925 4.847,4.503 4.847,4.091 C4.847,3.715 4.839,3.250 5.056,3.044 L7.275,2.816 L7.271,0.026 C6.851,-0.000 6.354,0.023 5.925,0.023 C5.480,0.023 5.028,0.014 4.590,0.044 C3.755,0.100 3.080,0.356 2.592,0.783 C1.885,1.946 1.612,0.947 1.606,5.336 L-0.011,5.337 L-0.008,8.130 L1.596,8.133 L1.596,8.133 Z" class="cls-1"/>
</svg>
