<svg xmlns="http://www.w3.org/2000/svg" xmlns:xlink="http://www.w3.org/1999/xlink" preserveAspectRatio="xMidYMid" width="16.87" height="17" viewBox="0 0 16.87 17">
  <defs>
    <style>
      .cls-1 {
        fill: #fff;
        fill-rule: evenodd;
      }
    </style>
  </defs>
  <path d="M8.170,0.788 C8.696,1.098 9.088,1.537 9.344,2.097 C9.601,2.657 9.729,3.228 9.729,3.806 C9.729,4.485 9.609,5.026 9.366,5.428 C9.124,5.829 8.857,6.173 8.564,6.453 C8.271,6.734 8.005,6.991 7.768,7.217 C7.529,7.447 7.410,7.731 7.410,8.069 C7.410,8.395 7.571,8.692 7.893,8.959 C8.217,9.227 8.571,9.524 8.961,9.849 C9.349,10.175 9.703,10.565 10.025,11.016 C10.349,11.468 10.510,12.052 10.510,12.769 C10.510,13.506 10.326,14.142 9.960,14.674 C9.593,15.204 9.131,15.643 8.571,15.988 C8.011,16.331 7.388,16.584 6.702,16.745 C6.018,16.909 5.352,16.991 4.706,16.991 C4.224,16.991 3.708,16.936 3.153,16.823 C2.600,16.710 2.087,16.529 1.614,16.273 C1.143,16.022 0.754,15.696 0.444,15.298 C0.138,14.899 -0.015,14.403 -0.015,13.810 C-0.015,13.088 0.191,12.486 0.605,12.010 C1.018,11.531 1.529,11.151 2.136,10.866 C2.746,10.578 3.400,10.377 4.104,10.257 C4.808,10.137 5.445,10.071 6.015,10.055 C5.847,9.846 5.696,9.615 5.558,9.362 C5.425,9.107 5.356,8.834 5.356,8.537 C5.356,8.370 5.380,8.222 5.429,8.091 C5.475,7.961 5.528,7.817 5.587,7.658 C5.470,7.686 5.348,7.699 5.217,7.699 C5.089,7.699 4.965,7.699 4.838,7.699 C4.342,7.699 3.866,7.616 3.412,7.447 C2.956,7.277 2.561,7.036 2.226,6.726 C1.888,6.413 1.616,6.047 1.412,5.624 C1.206,5.201 1.106,4.729 1.106,4.206 C1.106,3.715 1.196,3.253 1.378,2.818 C1.563,2.382 1.807,1.988 2.117,1.630 C2.423,1.272 2.782,0.967 3.191,0.717 C3.602,0.467 4.042,0.288 4.509,0.182 C5.155,0.049 5.799,-0.015 6.443,-0.015 L10.960,-0.015 L9.564,0.788 L8.170,0.788 ZM9.048,13.660 C9.048,13.305 8.970,12.982 8.810,12.687 C8.654,12.396 8.461,12.134 8.230,11.906 C7.999,11.678 7.739,11.466 7.455,11.266 C7.170,11.067 6.890,10.879 6.619,10.697 C6.517,10.682 6.409,10.670 6.297,10.664 C6.181,10.658 6.075,10.653 5.970,10.653 C5.554,10.653 5.104,10.697 4.619,10.788 C4.137,10.879 3.693,11.027 3.291,11.233 C2.888,11.441 2.555,11.713 2.291,12.052 C2.027,12.393 1.897,12.816 1.897,13.323 C1.897,13.814 2.024,14.235 2.280,14.580 C2.535,14.931 2.856,15.213 3.236,15.435 C3.615,15.654 4.037,15.814 4.494,15.910 C4.951,16.008 5.381,16.057 5.784,16.057 C6.159,16.057 6.541,16.015 6.932,15.933 C7.324,15.851 7.678,15.712 7.992,15.518 C8.308,15.329 8.562,15.081 8.757,14.778 C8.950,14.475 9.048,14.100 9.048,13.660 ZM5.906,7.093 C6.607,7.093 7.098,6.872 7.378,6.425 C7.657,5.982 7.795,5.449 7.795,4.826 C7.795,4.441 7.741,4.014 7.636,3.540 C7.529,3.066 7.365,2.617 7.142,2.194 C6.919,1.772 6.632,1.419 6.285,1.141 C5.937,0.864 5.525,0.722 5.047,0.722 C4.705,0.722 4.404,0.788 4.146,0.919 C3.891,1.049 3.680,1.227 3.516,1.450 C3.351,1.674 3.225,1.931 3.143,2.220 C3.058,2.510 3.017,2.812 3.017,3.122 C3.017,3.505 3.079,3.929 3.207,4.396 C3.335,4.864 3.525,5.298 3.775,5.698 C4.023,6.101 4.326,6.434 4.680,6.698 C5.037,6.963 5.445,7.093 5.906,7.093 ZM16.859,2.427 L14.497,2.427 L14.497,0.071 L13.322,0.071 L13.322,2.427 L10.960,2.427 L10.960,3.567 L13.322,3.567 L13.322,5.900 L14.497,5.900 L14.497,3.567 L16.859,3.567 L16.859,2.427 Z" class="cls-1"/>
</svg>
