<svg xmlns="http://www.w3.org/2000/svg" xmlns:xlink="http://www.w3.org/1999/xlink" preserveAspectRatio="xMidYMid" width="14.84" height="14.844" viewBox="0 0 14.84 14.844">
  <defs>
    <style>
      .cls-1 {
        fill: #000;
        fill-rule: evenodd;
      }
    </style>
  </defs>
  <path d="M10.283,6.278 C10.283,8.483 8.489,10.277 6.284,10.277 C4.079,10.277 2.285,8.483 2.285,6.278 C2.285,4.073 4.079,2.279 6.284,2.279 C8.489,2.279 10.283,4.073 10.283,6.278 ZM14.853,13.704 C14.853,13.401 14.728,13.107 14.523,12.902 L11.461,9.839 C12.185,8.795 12.568,7.545 12.568,6.278 C12.568,2.805 9.757,-0.007 6.284,-0.007 C2.812,-0.007 -0.000,2.805 -0.000,6.278 C-0.000,9.750 2.812,12.562 6.284,12.562 C7.552,12.562 8.801,12.178 9.846,11.455 L12.907,14.508 C13.113,14.722 13.407,14.847 13.711,14.847 C14.336,14.847 14.853,14.329 14.853,13.704 Z" class="cls-1"/>
</svg>
