<svg xmlns="http://www.w3.org/2000/svg" xmlns:xlink="http://www.w3.org/1999/xlink" preserveAspectRatio="xMidYMid" width="18.91" height="11" viewBox="0 0 18.91 11">
  <defs>
    <style>
      .cls-1 {
        fill: #fff;
        fill-rule: evenodd;
      }
    </style>
  </defs>
  <path d="M-0.000,0.710 C0.103,0.625 0.232,0.563 0.387,0.521 C0.531,0.480 0.661,0.458 0.774,0.458 L0.913,0.458 C1.017,0.458 1.141,0.464 1.285,0.474 C1.512,0.484 1.678,0.490 1.781,0.490 C1.843,0.490 2.039,0.480 2.370,0.458 C2.535,0.447 2.685,0.445 2.819,0.451 C2.953,0.455 3.071,0.458 3.175,0.458 C3.382,0.480 3.546,0.521 3.670,0.583 C3.732,0.615 3.800,0.683 3.872,0.788 C3.944,0.893 4.003,0.993 4.050,1.088 C4.096,1.181 4.156,1.315 4.228,1.488 C4.300,1.661 4.352,1.774 4.383,1.825 C4.775,2.686 5.261,3.541 5.839,4.390 C5.859,4.421 5.895,4.479 5.947,4.562 C5.999,4.646 6.043,4.712 6.078,4.759 C6.115,4.806 6.161,4.867 6.218,4.940 C6.275,5.014 6.329,5.071 6.381,5.113 C6.433,5.155 6.487,5.200 6.543,5.247 C6.600,5.293 6.660,5.322 6.721,5.334 C6.783,5.344 6.846,5.344 6.907,5.334 C7.196,5.280 7.357,4.668 7.387,3.493 C7.398,3.295 7.403,3.110 7.403,2.943 C7.403,2.167 7.325,1.633 7.171,1.338 C7.109,1.223 7.029,1.131 6.931,1.063 C6.833,0.995 6.706,0.932 6.551,0.874 C6.396,0.817 6.278,0.762 6.195,0.710 C6.340,0.416 6.595,0.221 6.961,0.128 C7.328,0.033 7.826,-0.013 8.456,-0.013 L9.277,-0.013 C9.277,-0.013 9.411,-0.011 9.679,-0.006 C9.948,-0.001 10.088,0.015 10.098,0.041 L10.439,0.128 C10.439,0.128 10.540,0.175 10.740,0.269 C10.942,0.364 11.007,0.438 10.934,0.490 C11.027,0.678 11.084,0.899 11.105,1.150 C11.105,1.223 11.109,1.297 11.120,1.370 C11.120,1.579 11.105,1.853 11.073,2.187 C11.032,2.628 11.012,2.901 11.012,3.006 C10.980,3.247 10.965,3.488 10.965,3.730 C10.965,3.918 10.975,4.117 10.996,4.326 C11.038,4.787 11.193,5.107 11.461,5.286 C11.554,5.276 11.639,5.254 11.716,5.223 C11.794,5.191 11.874,5.133 11.956,5.049 C12.039,4.966 12.096,4.906 12.127,4.870 C12.158,4.832 12.222,4.745 12.320,4.610 C12.418,4.473 12.473,4.400 12.483,4.390 C12.968,3.740 13.454,2.885 13.939,1.825 L14.078,1.472 C14.078,1.472 14.138,1.333 14.256,1.056 C14.375,0.778 14.437,0.675 14.442,0.749 C14.447,0.823 14.527,0.752 14.682,0.537 C14.847,0.464 15.043,0.426 15.270,0.426 L15.410,0.426 C15.617,0.426 15.854,0.438 16.123,0.458 C16.453,0.480 16.696,0.490 16.850,0.490 C16.943,0.490 17.085,0.484 17.276,0.474 C17.468,0.464 17.635,0.455 17.780,0.451 C17.924,0.445 18.077,0.447 18.237,0.458 C18.397,0.468 18.528,0.499 18.632,0.553 C18.735,0.605 18.807,0.672 18.849,0.756 C18.879,0.820 18.895,0.887 18.895,0.961 C18.895,1.265 18.714,1.722 18.353,2.330 C18.177,2.633 17.999,2.908 17.818,3.154 C17.638,3.400 17.403,3.705 17.114,4.067 C16.825,4.428 16.634,4.672 16.541,4.799 C16.520,4.819 16.448,4.914 16.324,5.082 C16.200,5.249 16.109,5.376 16.053,5.459 C15.996,5.543 15.937,5.661 15.875,5.812 C15.813,5.965 15.787,6.103 15.797,6.230 C15.797,6.314 15.813,6.392 15.844,6.465 C15.875,6.538 15.924,6.618 15.991,6.701 C16.058,6.785 16.109,6.848 16.146,6.890 C16.182,6.932 16.251,7.000 16.355,7.094 C16.458,7.188 16.520,7.246 16.541,7.268 C17.274,7.949 17.852,8.562 18.275,9.106 C18.688,9.653 18.895,10.045 18.895,10.287 C18.895,10.633 18.632,10.848 18.105,10.931 C17.837,10.973 17.563,10.995 17.284,10.995 C17.067,10.995 16.845,10.979 16.618,10.947 C16.412,10.926 16.221,10.916 16.045,10.916 C15.776,10.916 15.544,10.941 15.348,10.995 L15.256,10.995 C14.573,10.879 13.856,10.387 13.102,9.516 C13.061,9.474 12.973,9.366 12.839,9.193 C12.705,9.021 12.591,8.887 12.498,8.793 C12.405,8.699 12.287,8.609 12.142,8.526 C11.997,8.440 11.858,8.410 11.724,8.430 C11.486,8.473 11.329,8.625 11.251,8.887 C11.174,9.149 11.128,9.461 11.112,9.823 C11.097,10.184 11.048,10.439 10.965,10.586 C10.831,10.838 10.423,10.963 9.742,10.963 C9.452,10.963 9.112,10.941 8.719,10.899 C7.914,10.816 7.183,10.607 6.528,10.271 C5.873,9.935 5.353,9.582 4.971,9.209 C4.589,8.837 4.171,8.353 3.716,7.755 C2.643,6.361 1.626,4.672 0.665,2.692 C0.635,2.628 0.578,2.510 0.495,2.337 C0.413,2.164 0.351,2.030 0.309,1.937 C0.268,1.841 0.219,1.719 0.162,1.566 C0.106,1.415 0.064,1.268 0.039,1.127 C0.013,0.985 -0.000,0.846 -0.000,0.710 Z" class="cls-1"/>
</svg>
