<svg xmlns="http://www.w3.org/2000/svg" xmlns:xlink="http://www.w3.org/1999/xlink" preserveAspectRatio="xMidYMid" width="15.87" height="12" viewBox="0 0 15.87 12">
  <defs>
    <style>
      .cls-1 {
        fill: #fff;
        fill-rule: evenodd;
      }
    </style>
  </defs>
  <path d="M7.802,0.014 C9.538,0.092 11.199,0.164 12.860,0.242 C13.255,0.261 13.655,0.263 14.043,0.335 C14.889,0.493 15.494,1.214 15.615,2.153 C15.798,3.572 15.891,4.998 15.865,6.431 C15.844,7.607 15.761,8.776 15.590,9.938 C15.461,10.806 14.797,11.564 14.013,11.717 C13.729,11.772 13.435,11.774 13.146,11.792 C10.822,11.941 8.497,12.062 6.168,11.962 C4.786,11.904 3.406,11.816 2.026,11.734 C1.179,11.685 0.396,10.910 0.256,9.959 C0.026,8.388 -0.059,6.805 -0.014,5.216 C0.015,4.142 0.093,3.071 0.252,2.010 C0.392,1.069 1.139,0.340 2.039,0.292 C3.983,0.189 5.929,0.103 7.802,0.014 ZM6.123,8.377 C7.565,7.560 8.980,6.760 10.421,5.943 C8.972,5.124 7.555,4.321 6.123,3.511 C6.123,5.144 6.123,6.746 6.123,8.377 Z" class="cls-1"/>
</svg>
